# xmcd
#
# Track frame offsets:
#	150
#	15742
#	33045
#	51628
#	69753
#	87054
#	111634
#	125518
#	136645
#	152400
#
# Disc length: 2232 seconds
#
# Revision: 0
# Processed by: cddbd v1.5.2PL0 Copyright (c) Steve Scherf et al.
# Submitted via: FairStars CD Ripper 1.50
#
DISCID=7808b60a
DTITLE=The O'jays - Christmas with the O'jays
DYEAR=2010
DGENRE=R&B
TTITLE0=The First Noel
TTITLE1=Hark! The Herald Angels Sing
TTITLE2=Joy to the World
TTITLE3=Silent Night
TTITLE4=Jingle Bells
TTITLE5=I'm What You Want This Christmas
TTITLE6=Oh, Holy Night
TTITLE7=What Child Is This (Greensleeves)
TTITLE8=Cause It's Christmas
TTITLE9=We Wish You a Merry Christmas
EXTD=
EXTT0=
EXTT1=
EXTT2=
EXTT3=
EXTT4=
EXTT5=
EXTT6=
EXTT7=
EXTT8=
EXTT9=
PLAYORDER=
